<?xml version="1.0" standalone="no"?>
<!DOCTYPE svg PUBLIC "-//W3C//DTD SVG 20010904//EN"
 "http://www.w3.org/TR/2001/REC-SVG-20010904/DTD/svg10.dtd">
<svg version="1.0" xmlns="http://www.w3.org/2000/svg"
 width="225.000000pt" height="225.000000pt" viewBox="0 0 225.000000 225.000000"
 preserveAspectRatio="xMidYMid meet">

<g transform="translate(0.000000,225.000000) scale(0.100000,-0.100000)"
fill="#000000" stroke="none">
<path d="M1083 1495 c-11 -8 -23 -25 -27 -37 -3 -16 -21 -29 -53 -42 -59 -25
-121 -86 -152 -151 -20 -42 -25 -70 -29 -180 l-5 -130 -31 -15 c-37 -18 -47
-61 -20 -91 16 -18 35 -19 359 -19 324 0 343 1 359 19 27 30 17 73 -21 91
l-31 15 -4 130 c-3 118 -6 135 -31 187 -32 65 -89 118 -153 145 -24 10 -44 24
-44 31 0 21 -47 62 -72 62 -13 0 -33 -7 -45 -15z m75 -61 c3 -27 8 -33 34 -38
79 -16 157 -90 186 -175 7 -19 12 -87 12 -152 l0 -119 -265 0 -265 0 0 123 c0
117 2 127 30 183 33 68 93 119 158 137 28 8 42 17 42 28 0 36 12 50 39 47 21
-2 27 -9 29 -34z m307 -544 c0 -13 -45 -15 -334 -18 -196 -1 -339 2 -344 7
-28 28 10 31 341 29 292 -3 337 -5 337 -18z"/>
<path d="M1040 792 c0 -23 44 -47 85 -47 41 0 85 24 85 47 0 4 -38 8 -85 8
-47 0 -85 -4 -85 -8z"/>
</g>
</svg>
