<?xml version="1.0" standalone="no"?>
<!DOCTYPE svg PUBLIC "-//W3C//DTD SVG 20010904//EN"
 "http://www.w3.org/TR/2001/REC-SVG-20010904/DTD/svg10.dtd">
<svg version="1.0" xmlns="http://www.w3.org/2000/svg"
 width="512.000000pt" height="512.000000pt" viewBox="0 0 512.000000 512.000000"
 preserveAspectRatio="xMidYMid meet">

<g transform="translate(0.000000,512.000000) scale(0.100000,-0.100000)"
fill="#000000" stroke="none">
<path d="M1017 2994 c-90 -276 -138 -508 -172 -829 -13 -124 -20 -160 -44
-212 -57 -121 -128 -183 -274 -243 -105 -43 -175 -108 -223 -205 -31 -63 -37
-86 -41 -162 -6 -99 10 -176 53 -249 35 -59 115 -131 182 -162 l57 -27 706 -3
707 -3 16 -87 c40 -220 160 -394 338 -487 265 -140 586 -24 737 265 41 77 81
203 81 251 0 54 7 59 83 59 l71 0 -54 55 -54 55 -1295 2 -1296 3 -46 21 c-77
36 -151 125 -160 194 l-4 25 1275 3 1274 2 -54 55 -54 55 -1218 0 c-669 0
-1219 3 -1221 8 -3 4 4 30 14 57 28 75 94 137 187 174 l77 31 945 0 944 0 -59
60 -59 60 -809 0 -808 0 29 43 c71 103 96 181 112 347 10 112 36 304 46 346 4
16 20 23 92 37 48 9 121 30 162 46 159 62 232 62 335 -1 49 -29 47 -27 -40 62
l-90 92 -55 -6 c-30 -3 -116 -26 -192 -51 -75 -25 -148 -45 -161 -45 l-25 0
39 148 c21 81 41 157 45 169 5 18 14 23 55 25 l50 3 -80 79 -79 79 -45 -139z
m2013 -2122 c0 -48 -29 -144 -65 -219 -49 -100 -134 -184 -233 -231 -72 -35
-83 -37 -172 -37 -83 0 -103 4 -155 28 -90 42 -156 98 -208 174 -51 74 -95
185 -104 264 l-6 49 472 0 471 0 0 -28z"/>
</g>
</svg>
