<?xml version="1.0" standalone="no"?>
<!DOCTYPE svg PUBLIC "-//W3C//DTD SVG 20010904//EN"
 "http://www.w3.org/TR/2001/REC-SVG-20010904/DTD/svg10.dtd">
<svg version="1.0" xmlns="http://www.w3.org/2000/svg"
 width="225.000000pt" height="225.000000pt" viewBox="0 0 225.000000 225.000000"
 preserveAspectRatio="xMidYMid meet">

<g transform="translate(0.000000,225.000000) scale(0.100000,-0.100000)"
fill="#000000" stroke="none">
<path d="M1006 2240 c-329 -60 -578 -329 -603 -652 -3 -43 -8 -78 -10 -78 -2
0 -43 24 -90 53 -72 44 -94 52 -134 52 -39 0 -53 -5 -78 -29 -33 -31 -47 -80
-37 -121 4 -14 64 -82 134 -153 70 -70 140 -146 156 -170 l29 -42 -17 -108
c-10 -59 -47 -230 -83 -380 -35 -150 -62 -279 -60 -286 3 -7 38 -18 79 -25 88
-14 129 -37 162 -89 53 -84 113 -113 229 -110 55 2 71 -1 94 -19 85 -66 105
-77 159 -81 41 -3 73 1 123 19 l68 23 63 -23 c47 -17 78 -22 121 -19 57 4 75
13 162 81 23 18 39 21 94 19 116 -3 176 26 229 110 33 52 74 75 162 89 42 7
76 18 79 25 2 7 -23 127 -56 266 -33 139 -70 310 -82 381 l-22 127 29 43 c16
23 86 99 156 169 70 71 130 139 134 153 21 86 -60 171 -143 151 -16 -4 -65
-29 -110 -56 -45 -28 -84 -50 -86 -50 -2 0 -7 35 -10 78 -23 296 -243 559
-532 636 -72 20 -241 28 -309 16z m252 -66 c187 -38 354 -160 450 -331 51 -92
74 -175 81 -302 8 -145 16 -153 94 -93 67 50 177 112 200 112 25 0 57 -36 57
-64 0 -17 -15 -39 -47 -68 -144 -129 -273 -284 -273 -327 0 -58 44 -283 96
-494 30 -120 54 -224 54 -231 0 -7 -24 -17 -60 -24 -79 -14 -122 -42 -162
-104 -44 -68 -85 -88 -180 -86 -76 1 -137 -19 -168 -57 -40 -49 -106 -56 -205
-23 -64 21 -67 21 -123 4 -117 -36 -161 -34 -214 13 -59 51 -96 65 -176 63
-96 -2 -136 18 -184 91 -41 61 -91 91 -171 102 -31 5 -47 12 -47 22 0 7 22
102 49 211 51 204 85 373 97 478 l6 60 -59 75 c-63 78 -137 156 -216 227 -53
48 -60 79 -26 113 34 34 94 11 238 -94 77 -57 84 -49 92 94 7 127 30 210 81
302 69 123 169 217 293 277 137 67 276 84 423 54z"/>
<path d="M855 1850 c-75 -31 -106 -139 -65 -225 66 -136 234 -78 232 82 -1
107 -84 178 -167 143z m79 -69 c52 -57 27 -171 -37 -171 -65 0 -90 117 -37
170 25 25 52 25 74 1z"/>
<path d="M1298 1845 c-88 -50 -95 -208 -12 -274 103 -81 237 69 180 202 -30
71 -109 105 -168 72z m81 -55 c43 -23 52 -120 15 -161 -51 -56 -125 20 -102
105 15 55 48 77 87 56z"/>
<path d="M1080 1552 c-22 -12 -44 -37 -60 -67 -50 -99 -23 -259 52 -305 42
-25 64 -25 106 0 74 45 102 203 54 302 -37 75 -94 101 -152 70z m95 -91 c34
-68 26 -171 -18 -218 -26 -29 -38 -29 -65 0 -52 55 -50 190 4 244 28 28 55 20
79 -26z"/>
</g>
</svg>
