<?xml version="1.0" standalone="no"?>
<!DOCTYPE svg PUBLIC "-//W3C//DTD SVG 20010904//EN"
 "http://www.w3.org/TR/2001/REC-SVG-20010904/DTD/svg10.dtd">
<svg version="1.0" xmlns="http://www.w3.org/2000/svg"
 width="512.000000pt" height="512.000000pt" viewBox="0 0 512.000000 512.000000"
 preserveAspectRatio="xMidYMid meet">

<g transform="translate(0.000000,512.000000) scale(0.100000,-0.100000)"
fill="#000000" stroke="none">
<path d="M2407 4065 c-395 -75 -716 -347 -850 -721 -46 -127 -58 -215 -67
-469 -16 -432 -65 -706 -201 -1122 -60 -185 -61 -190 -56 -276 4 -75 10 -99
41 -161 44 -89 111 -155 204 -199 63 -30 74 -32 177 -32 103 0 114 2 177 32
37 17 90 53 118 79 l50 47 58 -55 c102 -97 199 -132 351 -126 85 3 105 8 171
39 41 20 95 54 120 76 l44 40 58 -37 c108 -70 267 -90 372 -46 36 15 40 15 67
-4 83 -60 252 -79 362 -41 161 56 273 201 284 369 5 68 -2 116 -61 402 -89
441 -106 575 -116 960 -7 289 -10 323 -33 410 -32 123 -57 188 -110 282 -146
266 -394 456 -696 535 -123 32 -344 40 -464 18z m299 -155 c407 -51 721 -324
826 -719 16 -63 21 -126 29 -366 12 -419 28 -549 126 -1019 46 -222 55 -281
51 -337 -8 -107 -64 -186 -163 -230 -94 -42 -214 -24 -297 46 -36 31 -66 32
-121 4 -58 -30 -151 -36 -216 -14 -38 12 -68 34 -116 81 -35 35 -71 64 -79 64
-31 0 -63 -23 -90 -65 -79 -126 -238 -180 -384 -131 -66 22 -153 100 -183 164
-32 67 -47 82 -86 82 -49 0 -68 -14 -87 -60 -9 -22 -34 -60 -56 -84 -131 -142
-361 -113 -447 57 -46 92 -43 140 20 333 136 410 189 707 207 1164 10 233 19
294 65 416 154 408 576 667 1001 614z"/>
<path d="M2225 3334 c-182 -94 -248 -456 -110 -601 37 -38 47 -43 86 -43 127
0 236 164 246 371 l6 96 -51 -5 c-47 -4 -54 -2 -82 26 -37 37 -41 95 -10 134
10 14 16 28 13 32 -12 11 -68 6 -98 -10z"/>
<path d="M2934 3340 c-36 -14 -83 -79 -100 -137 -22 -77 -15 -226 15 -304 68
-177 203 -259 294 -179 57 49 81 119 81 230 1 105 -27 228 -48 211 -11 -9 -45
-14 -79 -12 -10 1 -32 14 -48 30 -33 34 -40 91 -14 128 14 20 14 23 -4 33 -23
12 -67 12 -97 0z"/>
<path d="M2586 2679 c-52 -41 -74 -119 -55 -194 41 -164 209 -126 209 48 0 69
-18 116 -55 145 -35 28 -65 28 -99 1z"/>
</g>
</svg>
